<svg width="221" height="180" viewBox="0 0 221 180" fill="none" xmlns="http://www.w3.org/2000/svg">
<path d="M185.521 15.2666C171.519 8.43055 156.383 3.4996 140.639 0.693956C140.501 0.690113 140.364 0.718518 140.238 0.777174C140.112 0.83583 139.999 0.923314 139.908 1.03345C138.057 4.7296 135.902 9.54425 134.469 13.2378C117.773 10.6614 100.819 10.7663 84.1732 13.5491C82.6706 9.76205 80.4261 5.0863 78.4007 1.41414C78.2938 1.19149 77.9784 1.08178 77.664 1.08373C61.9738 4.08393 47.037 9.20101 33.0611 16.2103C32.9563 16.2109 32.8525 16.3232 32.7488 16.4355C4.67446 62.0538 -2.76913 106.317 1.51879 150.06C1.52089 150.283 1.62777 150.506 1.83838 150.616C20.8377 165.237 39.0491 174.057 57.0226 179.864C57.338 179.974 57.6513 179.86 57.7539 179.636C61.8876 173.469 65.599 166.97 68.7833 160.139C68.9887 159.691 68.7749 159.246 68.3548 159.137C62.3591 156.718 56.6735 153.85 51.0886 150.535C50.6673 150.314 50.661 149.644 50.9722 149.307C52.1165 148.407 53.2597 147.395 54.4039 146.494C54.6113 146.27 54.9257 146.268 55.1363 146.378C91.3463 163.684 130.221 163.444 165.683 145.694C165.891 145.581 166.205 145.579 166.417 145.801C167.579 146.799 168.74 147.685 169.902 148.683C170.324 149.015 170.331 149.685 169.809 149.911C164.393 153.406 158.656 156.233 152.706 158.727C152.288 158.841 152.189 159.4 152.297 159.734C155.714 166.524 159.547 172.976 163.691 179.092C164.006 179.202 164.322 179.311 164.635 179.198C182.602 173.169 200.646 164.124 219.368 149.27C219.577 149.157 219.679 148.933 219.677 148.71C223.813 98.1031 211.141 54.2998 185.942 15.4874C185.836 15.3763 185.73 15.2653 185.521 15.2666ZM73.883 122.926C63.0903 122.992 53.9794 112.441 53.8567 99.3782C53.734 86.315 62.4362 75.6537 73.4385 75.5856C84.5455 75.5168 93.4479 86.1809 93.4647 99.1331C93.5874 112.196 84.8852 122.858 73.883 122.926ZM146.917 122.474C136.124 122.54 127.013 111.989 126.891 98.9262C126.768 85.863 135.47 75.2016 146.472 75.1335C157.579 75.0648 166.482 85.7289 166.499 98.681C166.621 111.744 158.024 122.405 146.917 122.474Z" fill="url(#paint0_linear_540_795)"/>
<defs>
<linearGradient id="paint0_linear_540_795" x1="-137.87" y1="93.5902" x2="220.083" y2="90.0713" gradientUnits="userSpaceOnUse">
<stop stop-color="#6600CC"/>
<stop offset="1" stop-color="#009990"/>
</linearGradient>
</defs>
</svg>
