<svg width="227" height="160" viewBox="0 0 227 160" fill="none" xmlns="http://www.w3.org/2000/svg">
<path d="M222.252 24.9795C220.966 20.1506 218.436 15.7435 214.914 12.1984C211.392 8.65325 207.002 6.09409 202.181 4.77646C184.485 1.12752e-06 113.5 0 113.5 0C113.5 0 42.5152 1.12752e-06 24.8092 4.77646C19.9906 6.09553 15.6023 8.65533 12.0821 12.2004C8.56198 15.7454 6.03317 20.1517 4.74808 24.9795C0 42.799 0 79.9702 0 79.9702C0 79.9702 0 117.141 4.74808 134.961C6.03399 139.79 8.56422 144.197 12.0861 147.742C15.608 151.287 19.9983 153.846 24.8187 155.164C42.5152 159.94 113.5 159.94 113.5 159.94C113.5 159.94 184.485 159.94 202.191 155.164C207.011 153.846 211.401 151.287 214.923 147.742C218.445 144.197 220.975 139.79 222.261 134.961C227 117.141 227 79.9702 227 79.9702C227 79.9702 227 42.799 222.252 24.9795ZM90.2798 113.718V46.2229L149.612 79.9702L90.2798 113.718Z" fill="url(#paint0_linear_645_749)"/>
<defs>
<linearGradient id="paint0_linear_645_749" x1="-142.29" y1="81.6023" x2="227.001" y2="81.4144" gradientUnits="userSpaceOnUse">
<stop stop-color="#6600CC"/>
<stop offset="1" stop-color="#009990"/>
</linearGradient>
</defs>
</svg>
