<svg width="1440" height="1024" viewBox="0 0 1440 1024" fill="none" xmlns="http://www.w3.org/2000/svg">
<g clip-path="url(#clip0_96_195)">
<rect width="1440" height="1024" fill="#180137"/>
<mask id="mask0_96_195" style="mask-type:alpha" maskUnits="userSpaceOnUse" x="-330" y="-238" width="1956" height="1440">
<path d="M758.16 303.828C758.16 451.088 660.796 570.465 540.69 570.465C420.584 570.465 -329.822 53.9679 -329.822 -93.292C-329.822 -240.552 748.366 -37.8213 868.471 -37.8213C988.577 -37.8213 758.16 156.568 758.16 303.828Z" fill="url(#paint0_linear_96_195)"/>
<path d="M842.625 934.853C842.625 1082.11 745.26 1201.49 625.155 1201.49C505.049 1201.49 -164.042 1167.17 -164.042 1019.91C-164.042 872.645 -114.584 523.821 5.52185 523.821C125.627 523.821 842.625 787.593 842.625 934.853Z" fill="url(#paint1_radial_96_195)"/>
<path d="M1089.32 304.232C1413.39 596.92 1263.69 449.832 1542.03 442.422C1585.7 450.833 1659.82 451.233 1607.01 385.542C1541 303.427 1562.27 245.429 1479.77 155.965C1397.27 66.5011 1347.02 -24.3927 1222.47 -166.683C1097.91 -308.973 1088.33 -191.679 947.908 -202.798C807.488 -213.917 871.534 -196.26 677.79 10.1973C484.046 216.654 765.255 11.5432 1089.32 304.232Z" fill="#D9D9D9"/>
<path d="M783.375 764.614C349.695 815.672 558.971 799.913 381.212 1014.23C346.123 1041.55 296.998 1097.06 381.212 1100.59C486.48 1105 516.107 1159.21 637.764 1156.06C759.421 1152.91 860.908 1174.97 1050.01 1174.97C1239.12 1174.97 1157.17 1090.5 1258.03 992.169C1358.88 893.835 1303.41 930.395 1275.68 648.629C1247.94 366.864 1217.05 713.555 783.375 764.614Z" fill="#D9D9D9"/>
</mask>
<g mask="url(#mask0_96_195)">
<line x1="-32.2954" y1="609.548" x2="1479.28" y2="609.548" stroke="white" stroke-opacity="0.09" stroke-width="1.2607"/>
<line x1="-32.2954" y1="932.286" x2="1479.28" y2="932.286" stroke="white" stroke-opacity="0.09" stroke-width="1.2607"/>
<line x1="-32.2954" y1="286.81" x2="1479.28" y2="286.81" stroke="white" stroke-opacity="0.09" stroke-width="1.2607"/>
<line x1="-32.2954" y1="448.178" x2="1479.28" y2="448.178" stroke="white" stroke-opacity="0.09" stroke-width="1.2607"/>
<line x1="-32.2954" y1="770.916" x2="1479.28" y2="770.916" stroke="white" stroke-opacity="0.09" stroke-width="1.2607"/>
<line x1="-32.2954" y1="125.439" x2="1479.28" y2="125.439" stroke="white" stroke-opacity="0.09" stroke-width="1.2607"/>
<line x1="-32.2954" y1="528.863" x2="1479.28" y2="528.863" stroke="white" stroke-opacity="0.09" stroke-width="1.2607"/>
<line x1="-32.2954" y1="851.601" x2="1479.28" y2="851.601" stroke="white" stroke-opacity="0.09" stroke-width="1.2607"/>
<line x1="-32.2954" y1="206.125" x2="1479.28" y2="206.125" stroke="white" stroke-opacity="0.09" stroke-width="1.2607"/>
<line x1="-32.2954" y1="1012.97" x2="1479.28" y2="1012.97" stroke="white" stroke-opacity="0.09" stroke-width="1.2607"/>
<line x1="-32.2954" y1="367.493" x2="1479.28" y2="367.493" stroke="white" stroke-opacity="0.09" stroke-width="1.2607"/>
<line x1="-32.2954" y1="690.233" x2="1479.28" y2="690.233" stroke="white" stroke-opacity="0.09" stroke-width="1.2607"/>
<line x1="-32.2954" y1="44.7544" x2="1479.28" y2="44.7544" stroke="white" stroke-opacity="0.09" stroke-width="1.2607"/>
<line x1="14.98" y1="-64.2952" x2="14.9799" y2="1103.11" stroke="white" stroke-opacity="0.09" stroke-width="1.2607"/>
<line x1="660.461" y1="-64.2952" x2="660.461" y2="1103.11" stroke="white" stroke-opacity="0.09" stroke-width="1.2607"/>
<line x1="337.72" y1="-64.2953" x2="337.72" y2="1103.11" stroke="white" stroke-opacity="0.09" stroke-width="1.2607"/>
<line x1="983.197" y1="-64.2952" x2="983.197" y2="1103.11" stroke="white" stroke-opacity="0.09" stroke-width="1.2607"/>
<line x1="1305.94" y1="-64.2952" x2="1305.94" y2="1103.11" stroke="white" stroke-opacity="0.09" stroke-width="1.2607"/>
<line x1="176.35" y1="-64.2952" x2="176.35" y2="1103.11" stroke="white" stroke-opacity="0.09" stroke-width="1.2607"/>
<line x1="821.827" y1="-64.2952" x2="821.827" y2="1103.11" stroke="white" stroke-opacity="0.09" stroke-width="1.2607"/>
<line x1="499.09" y1="-64.2952" x2="499.09" y2="1103.11" stroke="white" stroke-opacity="0.09" stroke-width="1.2607"/>
<line x1="1144.57" y1="-64.2953" x2="1144.57" y2="1103.11" stroke="white" stroke-opacity="0.09" stroke-width="1.2607"/>
<line x1="95.6675" y1="-64.2952" x2="95.6674" y2="1103.11" stroke="white" stroke-opacity="0.09" stroke-width="1.2607"/>
<line x1="741.144" y1="-64.2953" x2="741.143" y2="1103.11" stroke="white" stroke-opacity="0.09" stroke-width="1.2607"/>
<line x1="418.403" y1="-64.2952" x2="418.403" y2="1103.11" stroke="white" stroke-opacity="0.09" stroke-width="1.2607"/>
<line x1="1063.88" y1="-64.2952" x2="1063.88" y2="1103.11" stroke="white" stroke-opacity="0.09" stroke-width="1.2607"/>
<line x1="1386.62" y1="-64.2952" x2="1386.62" y2="1103.11" stroke="white" stroke-opacity="0.09" stroke-width="1.2607"/>
<line x1="257.038" y1="-64.2952" x2="257.038" y2="1103.11" stroke="white" stroke-opacity="0.09" stroke-width="1.2607"/>
<line x1="902.514" y1="-64.2952" x2="902.514" y2="1103.11" stroke="white" stroke-opacity="0.09" stroke-width="1.2607"/>
<line x1="579.773" y1="-64.2952" x2="579.773" y2="1103.11" stroke="white" stroke-opacity="0.09" stroke-width="1.2607"/>
<line x1="1225.25" y1="-64.2952" x2="1225.25" y2="1103.11" stroke="white" stroke-opacity="0.09" stroke-width="1.2607"/>
<g opacity="0.7">
<rect x="821.885" y="770.859" width="80.2262" height="80.2262" fill="#20A7D1" fill-opacity="0.36"/>
<rect x="418.462" y="770.859" width="80.2262" height="80.2262" fill="#8F00FF" fill-opacity="0.25"/>
<rect x="1145.08" y="206.983" width="80.2262" height="79.0801" fill="#00FFD1" fill-opacity="0.24"/>
<rect x="498.688" y="126.757" width="80.2262" height="79.0801" fill="#A4E9FF" fill-opacity="0.31"/>
<rect x="1063.71" y="287.209" width="80.2262" height="79.0801" fill="#00FFD1" fill-opacity="0.24"/>
<rect x="417.316" y="206.983" width="80.2262" height="79.0801" fill="#A4E9FF" fill-opacity="0.31"/>
<rect x="1063.71" y="206.983" width="80.2262" height="79.0801" fill="#00FFD1" fill-opacity="0.24"/>
<rect x="417.316" y="126.757" width="80.2262" height="79.0801" fill="#A4E9FF" fill-opacity="0.31"/>
<rect x="338.236" y="770.859" width="80.2262" height="80.2262" fill="#8F00FF" fill-opacity="0.25"/>
<rect x="338.236" y="851.085" width="80.2262" height="81.3723" fill="#8F00FF" fill-opacity="0.25"/>
<rect x="176.637" y="690.633" width="80.2262" height="80.2262" fill="#8F00FF" fill-opacity="0.25"/>
<rect x="983.484" y="45.3845" width="80.2262" height="80.2262" fill="#0FA4AE" fill-opacity="0.61"/>
<rect x="903.258" y="-46.3025" width="80.2262" height="80.2262" fill="#0FA4AE" fill-opacity="0.61"/>
<rect x="902.381" y="44.2384" width="80.2262" height="81.3723" fill="#0FA4AE" fill-opacity="0.61"/>
<rect x="176.637" y="124.465" width="81.3723" height="82.5184" fill="#58ECFF" fill-opacity="0.44"/>
<rect x="95.2651" y="44.2384" width="81.3723" height="80.2262" fill="#58ECFF" fill-opacity="0.44"/>
<rect x="15.0391" y="45.3845" width="81.3723" height="80.2262" fill="#58ECFF" fill-opacity="0.44"/>
<rect x="95.2651" y="124.465" width="81.3723" height="82.5184" fill="#58ECFF" fill-opacity="0.44"/>
<rect x="418.462" y="-35.9877" width="81.3723" height="80.2262" fill="#0B5090"/>
<rect x="176.637" y="286.063" width="80.2262" height="81.3723" fill="#58ECFF" fill-opacity="0.44"/>
<rect x="1145.08" y="690.633" width="80.2262" height="80.2262" fill="#2B1B8B" fill-opacity="0.26"/>
<rect x="1225.31" y="770.859" width="80.2262" height="80.2262" fill="#2B1B8B" fill-opacity="0.26"/>
</g>
</g>
</g>
<defs>
<linearGradient id="paint0_linear_96_195" x1="189.586" y1="-19.5411" x2="644.067" y2="222.513" gradientUnits="userSpaceOnUse">
<stop stop-color="white"/>
<stop offset="1" stop-color="white" stop-opacity="0"/>
</linearGradient>
<radialGradient id="paint1_radial_96_195" cx="0" cy="0" r="1" gradientUnits="userSpaceOnUse" gradientTransform="translate(154.914 941.112) rotate(-29.3932) scale(777.019 1335.47)">
<stop stop-color="white"/>
<stop offset="1" stop-color="white" stop-opacity="0"/>
</radialGradient>
<clipPath id="clip0_96_195">
<rect width="1440" height="1024" fill="white"/>
</clipPath>
</defs>
</svg>
